<mxfile host="app.diagrams.net" modified="2024-07-08T18:57:17.505Z" agent="Mozilla/5.0 (X11; Linux x86_64) AppleWebKit/537.36 (KHTML, like Gecko) Chrome/126.0.0.0 Safari/537.36" version="24.6.4" etag="QXumtvTIpFVmsXneubSB" type="github">
  <diagram name="Page-1" id="Pg7Gvq5NjTDz21ge2rVp">
    <mxGraphModel>
      <root>
        <mxCell id="0" />
        <mxCell id="1" parent="0" />
      </root>
    </mxGraphModel>
  </diagram>
</mxfile>
